<svg id="Layer_1" data-name="Layer 1" xmlns="http://www.w3.org/2000/svg" viewBox="0 0 45 45"><defs><style>.cls-1,.cls-2{fill:#00bdff;}.cls-1{isolation:isolate;opacity:0.8;}.cls-3{fill:#fff;}</style></defs><path class="cls-1" d="M5.55,13.48l17,9.81,17-9.81a8.25,8.25,0,0,0-3.06-3.28l-10-5.55a8.81,8.81,0,0,0-7.76,0l-10,5.55A8.25,8.25,0,0,0,5.55,13.48Z"/><path class="cls-2" d="M22.5,23.29v18a8.11,8.11,0,0,0,3.88-.9l10-5.55a8.86,8.86,0,0,0,4.13-7V17.19a8,8,0,0,0-1.07-3.71Z"/><path class="cls-3" d="M4.48,17.19V27.81a8.88,8.88,0,0,0,4.12,7l10,5.55a8.11,8.11,0,0,0,3.88.9v-18L5.55,13.48A8,8,0,0,0,4.48,17.19Z"/></svg>