<svg id="Layer_1" data-name="Layer 1" xmlns="http://www.w3.org/2000/svg" viewBox="0 0 45 45"><defs><style>.cls-1,.cls-2{fill:none;stroke-linecap:round;stroke-linejoin:round;stroke-width:2px;}.cls-1{stroke:#fff;}.cls-2{stroke:#00bdff;}</style></defs><path class="cls-1" d="M5.94,14,22.5,23.53,38.94,14"/><path class="cls-1" d="M22.5,40.52v-17"/><path class="cls-2" d="M18.62,4.65l-10,5.55a8.86,8.86,0,0,0-4.13,7v10.6a8.86,8.86,0,0,0,4.13,7l10,5.57a9,9,0,0,0,7.78,0l10-5.57a8.86,8.86,0,0,0,4.13-7V17.19a8.86,8.86,0,0,0-4.13-7l-10-5.57A8.92,8.92,0,0,0,18.62,4.65Z"/></svg>