<svg id="Layer_1" data-name="Layer 1" xmlns="http://www.w3.org/2000/svg" viewBox="0 0 45 45"><defs><style>.cls-1{fill:#00bdff;}.cls-2{fill:#fff;}</style></defs><path class="cls-1" d="M14.64,3.75H30.36c6.82,0,10.89,4.07,10.89,10.89v15.7c0,6.84-4.07,10.91-10.89,10.91H14.66c-6.82,0-10.89-4.07-10.89-10.89V14.64C3.75,7.82,7.82,3.75,14.64,3.75Z"/><path class="cls-2" d="M9.71,19.84a1.37,1.37,0,0,1,0-2.74h6.77l-.73-6.56a1.38,1.38,0,0,1,2.74-.3l.77,6.86h5.3l-.73-6.56a1.38,1.38,0,0,1,2.74-.3l.75,6.86h6.62a1.37,1.37,0,0,1,0,2.74H27.62l.6,5.34h7.07a1.37,1.37,0,0,1,0,2.74H28.52l.73,6.56A1.38,1.38,0,0,1,28,36h-.15a1.4,1.4,0,0,1-1.37-1.22l-.77-6.86H20.42l.73,6.56A1.38,1.38,0,0,1,19.93,36h-.15a1.4,1.4,0,0,1-1.37-1.22l-.77-6.86H11a1.37,1.37,0,0,1,0-2.74h6.32l-.6-5.34Zm10.43,5.32h5.32l-.6-5.34H19.54Z"/></svg>