<svg id="Layer_1" data-name="Layer 1" xmlns="http://www.w3.org/2000/svg" viewBox="0 0 45 45"><defs><style>.cls-1{fill:#00bdff;}.cls-2{fill:#fff;}</style></defs><path class="cls-1" d="M14.64,3.75H30.36c6.82,0,10.89,4.07,10.89,10.89v15.7c0,6.84-4.07,10.91-10.89,10.91H14.66c-6.82,0-10.89-4.07-10.89-10.89V14.64C3.75,7.82,7.82,3.75,14.64,3.75Z"/><path class="cls-2" d="M22.5,29.78a7.28,7.28,0,1,1,7.28-7.28A7.27,7.27,0,0,1,22.5,29.78Z"/><path class="cls-2" d="M13.12,14.06a1.86,1.86,0,0,0,1.34-.54,2.24,2.24,0,0,0,.39-.62,1.92,1.92,0,0,0,.15-.71,1.86,1.86,0,0,0-2.23-1.84,1.37,1.37,0,0,0-.36.11,2.15,2.15,0,0,0-.34.17c-.09.06-.18.15-.28.23a1.72,1.72,0,0,0-.39.62,1.88,1.88,0,0,0-.15.71,1.92,1.92,0,0,0,.15.71,2,2,0,0,0,.39.62,2.15,2.15,0,0,0,.62.39A1.78,1.78,0,0,0,13.12,14.06Z"/></svg>