<svg id="Layer_1" data-name="Layer 1" xmlns="http://www.w3.org/2000/svg" viewBox="0 0 45 45"><defs><style>.cls-1{fill:#fff;}.cls-2{fill:#00bdff;}</style></defs><path class="cls-1" d="M33.75,24.38a9.37,9.37,0,1,1-9.37,9.37A9.36,9.36,0,0,1,33.75,24.38Zm3.83,5.54H33.75a1.28,1.28,0,1,0,0,2.55h3.83a1.28,1.28,0,0,0,0-2.55Zm-7.66,7.66h7.66a1.28,1.28,0,0,0,0-2.55H29.91a1.27,1.27,0,0,0-1.28,1.27A1.3,1.3,0,0,0,29.92,37.58Z"/><path class="cls-2" d="M13.12,5.62H31.88c5.62,0,9.37,2.82,9.37,9.38v5.89a1.88,1.88,0,0,1-2.66,1.69,12.16,12.16,0,0,0-16.78,8.71,12.41,12.41,0,0,0-.14,4.15,1.86,1.86,0,0,1-1.85,2.08h-6.7c-5.62,0-9.37-2.81-9.37-9.38V15C3.75,8.44,7.5,5.62,13.12,5.62Zm-.88,10.49,5.87,4.68a7.25,7.25,0,0,0,8.78,0l5.87-4.68a1.44,1.44,0,0,0,.22-2,1.41,1.41,0,0,0-2-.23l-5.87,4.69a4.44,4.44,0,0,1-5.26,0L14,13.89a1.39,1.39,0,0,0-2,.23A1.42,1.42,0,0,0,12.24,16.11Z"/></svg>