<svg id="Layer_1" data-name="Layer 1" xmlns="http://www.w3.org/2000/svg" viewBox="0 0 44 45"><defs><style>.cls-1,.cls-2,.cls-3,.cls-4{fill:none;}.cls-1,.cls-4{stroke:#fff;}.cls-1,.cls-3{stroke-linecap:round;}.cls-2{stroke:#00bdff;}.cls-2,.cls-4{stroke-width:2px;}.cls-3{stroke:#0a0e17;}</style></defs><path class="cls-1" d="M17.1,32.81s1.1,1.08,3.6-.93a4.31,4.31,0,0,0,1.8-3.76"/><path class="cls-2" d="M19.8,28.12c4,0,9.86,4,12.72,6.19a1.05,1.05,0,0,0,1.68-.82V7.76a1.05,1.05,0,0,0-1.68-.82c-2.86,2.15-8.76,6.18-12.72,6.18m0,15v-15m0,15h-9c-4,0-7.2-1.66-7.2-7.5s3.22-7.5,7.2-7.5h9M9,28.12l5.16,14.34a1,1,0,0,0,.94.66h5.08a1,1,0,0,0,.94-1.33L16.2,28.12m18-1.87a5.29,5.29,0,0,0,2.07-.43A5.42,5.42,0,0,0,38,24.6a5.63,5.63,0,0,0,1.17-1.82,5.87,5.87,0,0,0,0-4.31A5.63,5.63,0,0,0,38,16.65a5.42,5.42,0,0,0-1.75-1.22A5.29,5.29,0,0,0,34.2,15"/><path class="cls-3" d="M34.2,15V26.25"/><path class="cls-4" d="M40,20.5C40,15,34.5,15,34.5,15V26.5S40,26,40,20.5Z"/></svg>