<svg id="Layer_1" data-name="Layer 1" xmlns="http://www.w3.org/2000/svg" viewBox="0 0 44 45"><defs><style>.cls-1{fill:#00bdff;}.cls-2,.cls-3{fill:none;stroke-linecap:round;}.cls-2{stroke:#0a0e17;}.cls-3{stroke:#fff;}.cls-4{fill:#fff;}</style></defs><path class="cls-1" d="M23.4,28.12c-4,0-9.86,4-12.72,6.19A1.05,1.05,0,0,1,9,33.49V7.76a1.05,1.05,0,0,1,1.68-.82c2.86,2.15,8.76,6.18,12.72,6.18Zm10.8,0L29,42.46a1,1,0,0,1-.94.66H23a1,1,0,0,1-.94-1.33L27,28.12M9,26.25a5.29,5.29,0,0,1-2.07-.43A5.42,5.42,0,0,1,5.18,24.6,5.63,5.63,0,0,1,4,22.78a5.87,5.87,0,0,1,0-4.31,5.63,5.63,0,0,1,1.17-1.82,5.42,5.42,0,0,1,1.75-1.22A5.29,5.29,0,0,1,9,15m30.6,5.62c0-5.83-3.22-7.5-7.2-7.5h-9v15h9C36.38,28.12,39.6,26.46,39.6,20.62Z"/><path class="cls-2" d="M9,15V26.25"/><path class="cls-3" d="M26.1,32.81s-1.1,1.08-3.6-.93a4.31,4.31,0,0,1-1.8-3.76"/><path class="cls-4" d="M3.2,20.5C3.2,15,8.7,15,8.7,15V26.5S3.2,26,3.2,20.5Z"/></svg>