<svg id="Layer_1" data-name="Layer 1" xmlns="http://www.w3.org/2000/svg" viewBox="0 0 45 45"><defs><style>.cls-1{fill:#00bdff;}.cls-2{fill:#fff;}</style></defs><path class="cls-1" d="M10.37,31.56l-.73,5.92a1.87,1.87,0,0,0,2.81,1.84l6.49-3.86a1,1,0,0,0,.32-1.28,11.79,11.79,0,0,1-1.45-5.62c0-6.87,5.89-12.45,13.13-12.45a13.49,13.49,0,0,1,4.27.67.94.94,0,0,0,1.2-1.12c-1.7-6.83-8.27-11.91-16.1-11.91-9.15,0-16.56,6.92-16.56,15.45A15.13,15.13,0,0,0,10.37,31.56Z"/><path class="cls-2" d="M20.62,28.56a9.09,9.09,0,0,0,2.22,5.92,10.47,10.47,0,0,0,8.1,3.7l4.89,2.9a1.17,1.17,0,0,0,1.76-1.14l-.47-3.7a9.24,9.24,0,0,0-.33-15.61,10.65,10.65,0,0,0-5.85-1.71C25.24,18.92,20.62,23.23,20.62,28.56Z"/></svg>