<svg id="Layer_1" data-name="Layer 1" xmlns="http://www.w3.org/2000/svg" viewBox="0 0 45 45"><defs><style>.cls-1,.cls-2{fill:none;stroke-linecap:round;stroke-linejoin:round;stroke-width:2px;}.cls-1{stroke:#00bdff;}.cls-2{stroke:#fff;}</style></defs><path class="cls-1" d="M34.63,31.56l.73,5.92a1.87,1.87,0,0,1-2.81,1.84l-7.86-4.67a19.2,19.2,0,0,1-2.53-.17,9.09,9.09,0,0,0,2.21-5.92c0-5.33-4.61-9.64-10.31-9.64a10.73,10.73,0,0,0-5.85,1.7,13.11,13.11,0,0,1-.07-1.42c0-8.53,7.4-15.45,16.55-15.45S41.25,10.67,41.25,19.2A15.13,15.13,0,0,1,34.63,31.56Z"/><path class="cls-2" d="M24.38,28.56a9.09,9.09,0,0,1-2.22,5.92,10.47,10.47,0,0,1-8.1,3.7l-4.89,2.9a1.17,1.17,0,0,1-1.76-1.14l.46-3.7a9.25,9.25,0,0,1,.34-15.61,10.65,10.65,0,0,1,5.85-1.71C19.76,18.92,24.38,23.23,24.38,28.56Z"/></svg>