<svg id="Layer_1" data-name="Layer 1" xmlns="http://www.w3.org/2000/svg" viewBox="0 0 37 37"><defs><style>.cls-1,.cls-2{fill:none;stroke-linecap:round;stroke-linejoin:round;stroke-width:2px;}.cls-1{stroke:#00bdff;}.cls-2{stroke:#fff;}</style></defs><path class="cls-1" d="M24.67,19.89v6.47c0,5.4-2.16,7.56-7.56,7.56H10.64c-5.4,0-7.56-2.16-7.56-7.56V19.89c0-5.4,2.16-7.56,7.56-7.56h6.47C22.51,12.33,24.67,14.49,24.67,19.89Z"/><path class="cls-2" d="M33.92,10.64v6.47c0,5.4-2.16,7.56-7.56,7.56H24.67V19.89c0-5.4-2.16-7.56-7.56-7.56H12.33V10.64c0-5.4,2.16-7.56,7.56-7.56h6.47C31.76,3.08,33.92,5.24,33.92,10.64Z"/></svg>