<svg id="Layer_1" data-name="Layer 1" xmlns="http://www.w3.org/2000/svg" viewBox="0 0 37 37"><defs><style>.cls-1{fill:#00bdff;}.cls-2{fill:#fff;}</style></defs><path class="cls-1" d="M24.67,19.89v6.47c0,5.4-2.16,7.56-7.56,7.56H10.64c-5.4,0-7.56-2.16-7.56-7.56V19.89c0-5.4,2.16-7.56,7.56-7.56h6.47C22.51,12.33,24.67,14.49,24.67,19.89Z"/><path class="cls-2" d="M26.36,3.08H19.89c-5,0-7.17,1.84-7.5,6.31a1,1,0,0,0,1,1h3.75c6.48,0,9.48,3,9.48,9.48v3.75a1,1,0,0,0,1,1c4.47-.33,6.31-2.54,6.31-7.5V10.64C33.92,5.24,31.76,3.08,26.36,3.08Z"/></svg>