<svg id="Layer_1" data-name="Layer 1" xmlns="http://www.w3.org/2000/svg" viewBox="0 0 37 37"><defs><style>.cls-1{fill:#fff;}.cls-2{fill:#00bdff;}</style></defs><path class="cls-1" d="M33.41,10.71a10.79,10.79,0,0,0-7.12-7.12c-2.55-.74-4.31-.68-5.52.23-1.47,1.1-1.64,3.07-1.64,4.47v3.84c0,3.8,1.73,5.72,5.12,5.72h4.42c1.39,0,3.38-.17,4.48-1.63C34.09,15,34.16,13.26,33.41,10.71Z"/><path class="cls-2" d="M29.15,20.6a2.08,2.08,0,0,0-1.59-.73H22.05A4.92,4.92,0,0,1,17.13,15V9.43a2.13,2.13,0,0,0-2.38-2.09,13.44,13.44,0,0,0-9.12,5.44,13.31,13.31,0,0,0,8.26,20.89,12.94,12.94,0,0,0,2.54.25,13.13,13.13,0,0,0,7.79-2.55,13.44,13.44,0,0,0,5.44-9.12A2.06,2.06,0,0,0,29.15,20.6Z"/></svg>