<svg id="Layer_1" data-name="Layer 1" xmlns="http://www.w3.org/2000/svg" viewBox="0 0 37 37"><defs><style>.cls-1{fill:#fff;}.cls-2{fill:#00bdff;}</style></defs><path class="cls-1" d="M32.84,33.92a1.08,1.08,0,0,1-.76-.31l-2.87-2.87a1.08,1.08,0,0,1,1.53-1.53l2.87,2.87a1.11,1.11,0,0,1,0,1.53A1.16,1.16,0,0,1,32.84,33.92Z"/><path class="cls-2" d="M17.73,3.08A14.65,14.65,0,1,0,32.37,17.73,14.66,14.66,0,0,0,17.73,3.08Zm4.9,15.51a6.59,6.59,0,0,1-4.9,4.24,6.46,6.46,0,0,1-4.9-4.24c-.59-1.83.07-4.22,2.17-4.88a3,3,0,0,1,2.73.44,3,3,0,0,1,2.74-.44A3.81,3.81,0,0,1,22.63,18.59Z"/></svg>