<svg id="Layer_1" data-name="Layer 1" xmlns="http://www.w3.org/2000/svg" viewBox="0 0 37 37"><defs><style>.cls-1{fill:#fff;}.cls-2{fill:#00bdff;}</style></defs><path class="cls-1" d="M22.12,3.08H14.88A2.91,2.91,0,0,0,12,6V7.43a2.9,2.9,0,0,0,2.9,2.9h7.26A2.9,2.9,0,0,0,25,7.43V6A2.88,2.88,0,0,0,22.12,3.08Z"/><path class="cls-2" d="M26.58,7.43a4.48,4.48,0,0,1-4.46,4.46H14.88a4.48,4.48,0,0,1-4.46-4.46,1.15,1.15,0,0,0-1.69-1,6.89,6.89,0,0,0-3.66,6.09V27A6.91,6.91,0,0,0,12,33.92H25A6.91,6.91,0,0,0,31.93,27V12.52a6.89,6.89,0,0,0-3.66-6.09A1.15,1.15,0,0,0,26.58,7.43Zm-7.49,18.7H12.33a1.16,1.16,0,0,1,0-2.31h6.76a1.16,1.16,0,0,1,0,2.31Zm4-6.17H12.33a1.16,1.16,0,0,1,0-2.31H23.12a1.16,1.16,0,1,1,0,2.31Z"/></svg>