<svg id="Layer_1" data-name="Layer 1" xmlns="http://www.w3.org/2000/svg" viewBox="0 0 37 37"><defs><style>.cls-1,.cls-2{fill:none;stroke-linecap:round;stroke-linejoin:round;stroke-width:2px;}.cls-1{stroke:#00bdff;}.cls-2{stroke:#fff;}</style></defs><path class="cls-1" d="M12.33,18.81h10.8"/><path class="cls-1" d="M12.33,25h6.76"/><path class="cls-2" d="M15.42,9.25h6.16c3.09,0,3.09-1.54,3.09-3.08,0-3.09-1.54-3.09-3.09-3.09H15.42c-1.54,0-3.09,0-3.09,3.09S13.88,9.25,15.42,9.25Z"/><path class="cls-1" d="M24.67,6.2c5.13.28,7.71,2.17,7.71,9.22v9.25c0,6.16-1.55,9.25-9.26,9.25H13.88c-7.71,0-9.26-3.09-9.26-9.25V15.42c0-7,2.58-8.94,7.71-9.22"/></svg>