<svg xmlns="http://www.w3.org/2000/svg" viewBox="0 0 37 37"><defs><style>.cls-1,.cls-5{fill:#00bdff;}.cls-1,.cls-2,.cls-4{fill-rule:evenodd;}.cls-2,.cls-4{fill:#fff;}.cls-2,.cls-3{stroke:#fff;stroke-miterlimit:10;}.cls-2{stroke-width:0.5px;}.cls-3{fill:none;}</style></defs><g id="_1" data-name="1"><path class="cls-1" d="M9,25.44a1.83,1.83,0,0,1,1.84,1.84,1.86,1.86,0,0,1-3.72,0A1.84,1.84,0,0,1,9,25.44Z"/><path class="cls-1" d="M9,17.84a1.85,1.85,0,0,1,1.84,1.86,1.86,1.86,0,0,1-3.72,0A1.85,1.85,0,0,1,9,17.84Z"/><path class="cls-2" d="M32.31,16a8.84,8.84,0,0,0-1.76-.9l-.3-.11a8.63,8.63,0,0,0-1.63-.4,9.47,9.47,0,1,0,8,9.33A9.39,9.39,0,0,0,32.31,16ZM27.19,32.46a8.55,8.55,0,1,1,0-17.09,7.54,7.54,0,0,1,1.43.14,7.28,7.28,0,0,1,1.85.53l.08,0a7.68,7.68,0,0,1,.81.41,8.54,8.54,0,0,1-4.17,16Z"/><line class="cls-3" x1="26.86" y1="18.5" x2="26.86" y2="23.92"/><line class="cls-3" x1="26.86" y1="23.92" x2="32.83" y2="23.92"/><path class="cls-4" d="M6,9.45V2.51c0-1,.6-1.77,1.32-1.77A1.59,1.59,0,0,1,8.71,2.51V9.45a1.52,1.52,0,0,1-1.38,1.67A1.51,1.51,0,0,1,6,9.45Z"/><path class="cls-4" d="M22.88,11.12a1.53,1.53,0,0,0,1.4-1.67V2.51A1.6,1.6,0,0,0,22.88.74c-.69,0-1.3.77-1.3,1.77V9.45a1.52,1.52,0,0,0,1.3,1.67Z"/><path class="cls-5" d="M9.1,6.73V8.58c.53-.05,1.1-.07,1.72-.07h8.65c.61,0,1.18,0,1.71.07V6.73Zm15.58.42v2a.65.65,0,0,1,0,.2,5.22,5.22,0,0,1,3,3.52,10.3,10.3,0,0,1,2,.38C29.12,9.58,27.44,7.87,24.68,7.15ZM23.05,34.21a12.38,12.38,0,0,1-2.13.27H9.37c-4.81-.27-7.22-2.08-7.22-8.64V17.18c0-4,.69-6.58,3.47-7.83a.65.65,0,0,1,0-.2v-2C2.11,8.08.36,10.59.36,16.55v9.86C.36,33,2,36.26,10.22,36.26h9.85c3.14,0,5.32-.48,6.81-1.44h-.23A10.71,10.71,0,0,1,23.05,34.21Z"/></g></svg>