<svg id="_2" data-name="2" xmlns="http://www.w3.org/2000/svg" viewBox="0 0 37 37"><defs><style>.cls-1{fill:#00bdff;stroke:#00bdff;stroke-miterlimit:10;}.cls-2{fill:#fff;}</style></defs><path class="cls-1" d="M12.33,34.5H26.24a1.22,1.22,0,0,0,1.32-1.09V30.46a16.43,16.43,0,0,1,.24-2.79.29.29,0,0,0-.28-.31.32.32,0,0,0-.37.23,17.48,17.48,0,0,0-.25,2.87v2.95a.61.61,0,0,1-.66.55H12.33a.61.61,0,0,1-.66-.55V30.54a.31.31,0,0,0-.33-.27H7.45A2.31,2.31,0,0,1,5,28.21V24.13a.3.3,0,0,0-.32-.26l-2.27,0a.92.92,0,0,1-.75-.36.62.62,0,0,1,0-.71L4.08,18.9A5.44,5.44,0,0,0,5,16,9.86,9.86,0,0,1,8.83,8.33,14.56,14.56,0,0,1,18.05,5.2h.12A15.19,15.19,0,0,1,25.3,7a.36.36,0,0,0,.45-.07.24.24,0,0,0-.09-.37,15.76,15.76,0,0,0-7.49-1.89h-.12A15.29,15.29,0,0,0,8.37,8,10.37,10.37,0,0,0,4.3,16a5,5,0,0,1-.8,2.66L1,22.51a1.07,1.07,0,0,0,0,1.24,1.62,1.62,0,0,0,1.3.62l1.95,0v3.81a2.92,2.92,0,0,0,3.15,2.6H11v2.6A1.22,1.22,0,0,0,12.33,34.5Z"/><path class="cls-2" d="M37.24,19.16a1.2,1.2,0,0,1-.59-1,1.5,1.5,0,0,1,0-.2,7.93,7.93,0,0,0,0-3.07,1.17,1.17,0,0,1,.57-1.21,1.15,1.15,0,0,0,.59-1,1.13,1.13,0,0,0-.15-.59l-.47-.81a1.18,1.18,0,0,0-1.61-.44A1.15,1.15,0,0,1,35,11a1.13,1.13,0,0,1-.75-.27,7.57,7.57,0,0,0-2.6-1.53,1.12,1.12,0,0,1-.77-1.08h0a1.19,1.19,0,0,0-1.18-1.18h-.94a1.18,1.18,0,0,0-1.16,1.18h0a1.13,1.13,0,0,1-.79,1.08,7.67,7.67,0,0,0-2.6,1.53,1.16,1.16,0,0,1-1.34.1h0a1.18,1.18,0,0,0-1.61.44l-.46.81a1.16,1.16,0,0,0,.44,1.59h0a1.14,1.14,0,0,1,.56,1.2,7.93,7.93,0,0,0,0,3.07,1.16,1.16,0,0,1-.56,1.2h0a1.17,1.17,0,0,0-.43,1.6l.46.8a1.18,1.18,0,0,0,1.61.43h0a1.16,1.16,0,0,1,1.34.12,7.71,7.71,0,0,0,2.6,1.51,1.17,1.17,0,0,1,.79,1.1,1.16,1.16,0,0,0,1.16,1.17h.94a1.17,1.17,0,0,0,1.18-1.17,1.16,1.16,0,0,1,.77-1.1,7.53,7.53,0,0,0,2.6-1.51A1.16,1.16,0,0,1,35.6,22a1.21,1.21,0,0,0,.59.17,1.19,1.19,0,0,0,1-.6l.47-.8A1.18,1.18,0,0,0,37.24,19.16Zm-8,3.61a6.35,6.35,0,1,1,6.33-6.33A6.35,6.35,0,0,1,29.25,22.77Z"/></svg>