<?xml version="1.0" encoding="utf-8"?>
<!-- Generator: Adobe Illustrator 26.0.1, SVG Export Plug-In . SVG Version: 6.00 Build 0)  -->
<svg version="1.1" id="Layer_1" xmlns="http://www.w3.org/2000/svg" xmlns:xlink="http://www.w3.org/1999/xlink" x="0px" y="0px"
	 viewBox="0 0 406 147" style="enable-background:new 0 0 406 147;" xml:space="preserve">
<style type="text/css">
	.st0{fill:url(#SVGID_1_);}
	.st1{clip-path:url(#SVGID_00000106144279815244673590000013876133108954253469_);}
	.st2{fill:url(#SVGID_00000103981118467438411620000017914975291631689645_);}
	.st3{fill:url(#SVGID_00000153697067267013719850000009728503202309125021_);}
	.st4{fill:url(#SVGID_00000103983630896097637600000017313694732393748886_);}
	.st5{fill:url(#SVGID_00000048461537780527689810000008484942999167496639_);}
	.st6{fill:url(#SVGID_00000143601793530640955050000010277831303780201910_);}
	.st7{fill:url(#SVGID_00000037677352444649927310000009811236894574379148_);}
	.st8{fill:url(#SVGID_00000023974659466750718540000002649732780781856669_);}
	.st9{fill:url(#SVGID_00000050642352966429821950000011532138892674656386_);}
	.st10{fill:url(#SVGID_00000101097245219771773070000010735434133786814653_);}
	.st11{fill:url(#SVGID_00000019641902047639998330000001549816542446215078_);}
	.st12{fill:url(#SVGID_00000133525885382724893970000008254930521007390118_);}
</style>
<linearGradient id="SVGID_1_" gradientUnits="userSpaceOnUse" x1="406.5904" y1="70.2587" x2="318.8204" y2="44.9887" gradientTransform="matrix(1 0 0 1 0 -14)">
	<stop  offset="0" style="stop-color:#00BDFF"/>
	<stop  offset="0.75" style="stop-color:#00AAE6"/>
	<stop  offset="1" style="stop-color:#05062B;stop-opacity:0.5"/>
</linearGradient>
<path class="st0" d="M323.1,70.5c0,0,5.2,0.4,12.5-3.3s33.8-16.7,38.6-20.8s18.5-17.5,26.4-21.2s-1.2-12.1-10.4-10.3
	c-13.8,2.6-19.3,8.9-26.5,17.4l-35.1,13.3L323.1,70.5z"/>
<g>
	<defs>
		<rect id="SVGID_00000011746310504302664050000009423756600055405236_" x="161.3" y="1" width="99" height="84"/>
	</defs>
	<clipPath id="SVGID_00000054957323494379511010000011537339601170974366_">
		<use xlink:href="#SVGID_00000011746310504302664050000009423756600055405236_"  style="overflow:visible;"/>
	</clipPath>
	<g style="clip-path:url(#SVGID_00000054957323494379511010000011537339601170974366_);">
		
			<linearGradient id="SVGID_00000003812244936429281710000005222783339837760699_" gradientUnits="userSpaceOnUse" x1="374.4271" y1="-3.5471" x2="232.0771" y2="54.2529" gradientTransform="matrix(1 0 0 1 0 -14)">
			<stop  offset="0" style="stop-color:#00BDFF"/>
			<stop  offset="0.66" style="stop-color:#00AAE6;stop-opacity:0.81"/>
			<stop  offset="1" style="stop-color:#05062B;stop-opacity:0"/>
		</linearGradient>
		<path style="fill:url(#SVGID_00000003812244936429281710000005222783339837760699_);" d="M343,11.6c-3-6-16.1-6-27.4-3.3
			c-18,4.3-22.9,4.3-41,1.5s-24.5-2.9-24.5-2.9L266.4,36c0,0,20.3-6.2,33-6.2s24.4-0.6,34.7-5.1C343.5,20.8,345.2,15.8,343,11.6z"/>
		
			<linearGradient id="SVGID_00000162310899446367617590000013708667483961185931_" gradientUnits="userSpaceOnUse" x1="287.7045" y1="-23.4913" x2="209.9345" y2="106.3887" gradientTransform="matrix(1 0 0 1 0 -14)">
			<stop  offset="0" style="stop-color:#00BDFF"/>
			<stop  offset="0.62" style="stop-color:#00AAE6;stop-opacity:0.81"/>
			<stop  offset="1" style="stop-color:#05062B;stop-opacity:0"/>
		</linearGradient>
		<path style="fill:url(#SVGID_00000162310899446367617590000013708667483961185931_);" d="M162.1,21.9
			c19.1-5.4,37.8-14.3,54.1-15.9c12.8-1.3,25-0.5,36.7,0.9c5.8,0.7,10.8,4.3,13.2,9.6C271,27,279.8,43.7,287.2,45
			c10.8,1.9,41.2,0,41.2,0l-30,34.3l-55.7-4.6c-7-0.6-13.6-3.1-19.2-7.2L162.1,21.9z"/>
	</g>
</g>
<linearGradient id="SVGID_00000109737312538360386670000017364529105971135112_" gradientUnits="userSpaceOnUse" x1="359.029" y1="55.6134" x2="283.899" y2="59.9934" gradientTransform="matrix(1 0 0 1 0 -14)">
	<stop  offset="0" style="stop-color:#00BDFF"/>
	<stop  offset="0.62" style="stop-color:#00AAE6;stop-opacity:0.81"/>
	<stop  offset="1" style="stop-color:#05062B;stop-opacity:0"/>
</linearGradient>
<path style="fill:url(#SVGID_00000109737312538360386670000017364529105971135112_);" d="M306.4,57c0,0,20.4-23.2,28-28.2
	c0,0,5.2-27.3,20.5-28.8c5.6-0.6,0.6,13.3,0.6,13.3s-3.7,21.9-6.3,27.6S327,68,325.3,72.6s-41.8,15.2-41.8,15.2L306.4,57z"/>
<linearGradient id="SVGID_00000019659671491070470160000007225482909332156312_" gradientUnits="userSpaceOnUse" x1="315.6073" y1="38.2902" x2="336.8273" y2="64.8602" gradientTransform="matrix(1 0 0 1 0 -14)">
	<stop  offset="0" style="stop-color:#FFFFFF"/>
	<stop  offset="1" style="stop-color:#FFFFFF;stop-opacity:0"/>
</linearGradient>
<path style="fill:url(#SVGID_00000019659671491070470160000007225482909332156312_);" d="M316.8,54.5c0,0,6.9-15.6,13.4-16.5
	c9-1.3,12.2,5.9,19.7,0.7c-0.2,0.8-0.5,1.6-0.9,2.3c-1.9,4.3-13.4,17.3-19.7,25.5L316.8,54.5z"/>
<linearGradient id="SVGID_00000124852759322737544570000007645333427266568837_" gradientUnits="userSpaceOnUse" x1="267.517" y1="39.7122" x2="306.387" y2="76.7822" gradientTransform="matrix(1 0 0 1 0 -14)">
	<stop  offset="0" style="stop-color:#FFFFFF"/>
	<stop  offset="1" style="stop-color:#FFFFFF;stop-opacity:0"/>
</linearGradient>
<path style="fill:url(#SVGID_00000124852759322737544570000007645333427266568837_);" d="M306.4,57c0,0,11.4-13,20.3-21.6
	c-4.3,6.6-6,30.7-1.4,37.1c-1.7,4.6-41.8,15.2-41.8,15.2L306.4,57z"/>
<g>
	
		<linearGradient id="SVGID_00000026163460578742774130000001551667993705148073_" gradientUnits="userSpaceOnUse" x1="325.769" y1="76.5785" x2="12.049" y2="104.6385" gradientTransform="matrix(1 0 0 1 0 -14)">
		<stop  offset="0" style="stop-color:#00BDFF"/>
		<stop  offset="0.62" style="stop-color:#00AAE6;stop-opacity:0.81"/>
		<stop  offset="1" style="stop-color:#05062B;stop-opacity:0"/>
	</linearGradient>
	<path style="fill:url(#SVGID_00000026163460578742774130000001551667993705148073_);" d="M5.2,148.8l160.2-65.9
		c6.8-3,14.6-3.4,21.6-1c20.7,7,64.4,21.2,74.5,20.8c13.3-0.6,33.6-15.5,43.6-21.3s13.1-24.3,16.1-33.4s2.9-33.5,2.9-33.5
		s-7.5-4.2-10.5,4.6s-5.8,25.5-5.8,25.5l-13.1,15l-24,8.9c0,0-64.6-59.6-107-48.3S1.5,61.5,1.5,61.5L5.2,148.8z"/>
	
		<linearGradient id="SVGID_00000087389623572989584280000012406617667924093867_" gradientUnits="userSpaceOnUse" x1="291.2148" y1="51.523" x2="314.3347" y2="71.613" gradientTransform="matrix(1 0 0 1 0 -14)">
		<stop  offset="0" style="stop-color:#FFFFFF"/>
		<stop  offset="1" style="stop-color:#FFFFFF;stop-opacity:0"/>
	</linearGradient>
	<path style="fill:url(#SVGID_00000087389623572989584280000012406617667924093867_);" d="M322.1,45c-7.9,2.8-8.9-1.3-14.9,5.6
		c-3.4,3.9-6.4,8-9.1,12.3l19.4,12.4L322.1,45z"/>
	
		<linearGradient id="SVGID_00000090266315327924758130000009075998659327879040_" gradientUnits="userSpaceOnUse" x1="305.6675" y1="36.0727" x2="318.2575" y2="47.7527" gradientTransform="matrix(1 0 0 1 0 -14)">
		<stop  offset="0" style="stop-color:#FFFFFF"/>
		<stop  offset="1" style="stop-color:#FFFFFF;stop-opacity:0"/>
	</linearGradient>
	<path style="fill:url(#SVGID_00000090266315327924758130000009075998659327879040_);" d="M324.6,24.9c0,0-1.1,1.2-5.7,1.5
		c-5.1,0.3-7.9,15.4-7.9,15.4l14.3-1L324.6,24.9z"/>
</g>
<linearGradient id="SVGID_00000029041060948880979480000015171137703632947889_" gradientUnits="userSpaceOnUse" x1="324.4238" y1="33.6622" x2="317.7531" y2="33.9422" gradientTransform="matrix(1 0 0 1 0 -14)">
	<stop  offset="0.36" style="stop-color:#E6F8FF;stop-opacity:0"/>
	<stop  offset="1" style="stop-color:#E6F8FF;stop-opacity:0.7"/>
</linearGradient>
<path style="fill:url(#SVGID_00000029041060948880979480000015171137703632947889_);" d="M324.1,24.3c0,0-4.3,1.3-5.7,0.2
	s-0.3-10.7,5.8-10L324.1,24.3z"/>
<linearGradient id="SVGID_00000049187879170867974410000001593441562630422433_" gradientUnits="userSpaceOnUse" x1="358.8231" y1="20.5039" x2="349.4731" y2="22.5939" gradientTransform="matrix(1 0 0 1 0 -14)">
	<stop  offset="0.36" style="stop-color:#E6F8FF;stop-opacity:0"/>
	<stop  offset="1" style="stop-color:#E6F8FF;stop-opacity:0.7"/>
</linearGradient>
<path style="fill:url(#SVGID_00000049187879170867974410000001593441562630422433_);" d="M348.5,13.4c-1.4-1.7,3-14.6,8.6-12
	c1.4,3.4-1.7,12-1.7,12S349.8,15.2,348.5,13.4z"/>
<linearGradient id="SVGID_00000060741451406851192050000000817492778099465655_" gradientUnits="userSpaceOnUse" x1="335.4199" y1="29.2902" x2="350.3899" y2="38.6002" gradientTransform="matrix(1 0 0 1 0 -14)">
	<stop  offset="0" style="stop-color:#FFFFFF"/>
	<stop  offset="1" style="stop-color:#FFFFFF;stop-opacity:0"/>
</linearGradient>
<path style="fill:url(#SVGID_00000060741451406851192050000000817492778099465655_);" d="M345.5,35.2c-4.6-1.3,0.3-16.6,3.2-20.9
	c1.5,1.1,5.3,0.1,6.7-0.3c0,0-1.7,10.1-3.6,18.3C349.5,34.8,348.6,36.1,345.5,35.2z"/>
</svg>
