<svg xmlns="http://www.w3.org/2000/svg" viewBox="0 0 37 37"><defs><style>.cls-1{fill:#00bdff;stroke:#00bdff;stroke-miterlimit:10;stroke-width:0.5px;}.cls-2{fill:#fff;}</style></defs><g id="_1" data-name="1"><path class="cls-1" d="M26.36,18.47a15.86,15.86,0,0,1-1.4,2.3,14.83,14.83,0,0,0-3.08,8.51H11.82a14.83,14.83,0,0,0-3.08-8.51,9.79,9.79,0,0,1-2.25-6.48,9.94,9.94,0,0,1,6.09-9c0-.25.08-.49.13-.73a10.57,10.57,0,0,0-6.88,9.77,10.45,10.45,0,0,0,2.36,6.83,14.09,14.09,0,0,1,3,8.5.31.31,0,0,0,.31.29H22.2a.33.33,0,0,0,.33-.29,14,14,0,0,1,3-8.5,14.8,14.8,0,0,0,1.62-2.77A6.83,6.83,0,0,1,26.36,18.47Z"/><path class="cls-1" d="M22,31.62H11.75a.72.72,0,0,1-.74-.7V30a.72.72,0,0,1,.74-.7H22a.72.72,0,0,1,.73.7v.93A.72.72,0,0,1,22,31.62ZM11.75,29.91a.09.09,0,0,0-.09.08v.93a.09.09,0,0,0,.09.08H22a.09.09,0,0,0,.08-.08V30a.09.09,0,0,0-.08-.08Z"/><path class="cls-1" d="M21.23,33.34H12.47a.72.72,0,0,1-.73-.71V31.7a.72.72,0,0,1,.73-.7h8.76a.72.72,0,0,1,.74.7v.93A.73.73,0,0,1,21.23,33.34Zm-8.76-1.72a.08.08,0,0,0-.08.08v.93a.08.08,0,0,0,.08.08h8.76a.09.09,0,0,0,.08-.08V31.7a.08.08,0,0,0-.08-.08Z"/><path class="cls-1" d="M16.85,36.5a3.33,3.33,0,0,1-3.39-3.25,1.48,1.48,0,0,1,0-.21.35.35,0,0,1,.32-.33h6.12a.31.31,0,0,1,.32.3,2.18,2.18,0,0,1,0,.24A3.33,3.33,0,0,1,16.85,36.5Zm-2.74-3.16a2.75,2.75,0,0,0,5.48,0Z"/><path class="cls-2" d="M31.2,13.09a1.19,1.19,0,0,1-.64-1,1.68,1.68,0,0,1,0-.2,7,7,0,0,0,.16-1.58,7,7,0,0,0-.16-1.59,1.18,1.18,0,0,1,.62-1.24,1.18,1.18,0,0,0,.47-1.64L31.16,5a1.3,1.3,0,0,0-1.73-.45,1.3,1.3,0,0,1-.64.17,1.24,1.24,0,0,1-.8-.28,8.47,8.47,0,0,0-2.8-1.57,1.18,1.18,0,0,1-.83-1.12h0A1.24,1.24,0,0,0,23.1.5h-1a1.24,1.24,0,0,0-1.25,1.21h0A1.17,1.17,0,0,1,20,2.84a8.52,8.52,0,0,0-2.81,1.57,1.25,1.25,0,0,1-1.43.11h0A1.31,1.31,0,0,0,14,5l-.49.84A1.17,1.17,0,0,0,14,7.45h0a1.17,1.17,0,0,1,.61,1.23,7.47,7.47,0,0,0,0,3.17A1.18,1.18,0,0,1,14,13.09h0a1.19,1.19,0,0,0-.46,1.66l.49.82a1.31,1.31,0,0,0,1.73.45h0a1.27,1.27,0,0,1,1.43.12A8.42,8.42,0,0,0,20,17.7a1.2,1.2,0,0,1,.84,1.13A1.23,1.23,0,0,0,22.08,20h1a1.24,1.24,0,0,0,1.26-1.21,1.21,1.21,0,0,1,.83-1.13A8.28,8.28,0,0,0,28,16.14,1.28,1.28,0,0,1,29.43,16a1.39,1.39,0,0,0,.64.17,1.28,1.28,0,0,0,1.09-.62l.51-.82A1.2,1.2,0,0,0,31.2,13.09Zm-8.6,3.74a6.7,6.7,0,0,1-6.84-6.54A6.7,6.7,0,0,1,22.6,3.73a6.7,6.7,0,0,1,6.81,6.56A6.69,6.69,0,0,1,22.6,16.83Z"/></g></svg>