<svg id="Layer_1" data-name="Layer 1" xmlns="http://www.w3.org/2000/svg" viewBox="0 0 46 38"><defs><style>.cls-1{fill:#00bdff;}</style></defs><path class="cls-1" d="M11.08,38a11.23,11.23,0,0,1-7.65-3Q0,31.91,0,25.38A28.35,28.35,0,0,1,1.9,14.94,30.47,30.47,0,0,1,7.14,6.31,31.52,31.52,0,0,1,14.58,0l4.23,2.18a25,25,0,0,0-3.14,3.55,29.92,29.92,0,0,0-3.35,5.51,19.27,19.27,0,0,0-1.68,6.89A11.29,11.29,0,0,1,17.86,21a8.55,8.55,0,0,1,3,6.74,9.85,9.85,0,0,1-2.92,7.54A9.62,9.62,0,0,1,11.08,38Zm25,0a11.19,11.19,0,0,1-7.59-3q-3.34-3-3.35-9.57a28.35,28.35,0,0,1,1.9-10.44,30.47,30.47,0,0,1,5.24-8.63A30.87,30.87,0,0,1,39.58,0l4.23,2.18a25,25,0,0,0-3.13,3.55,26.84,26.84,0,0,0-3.28,5.51,20.09,20.09,0,0,0-1.61,6.89A11.44,11.44,0,0,1,42.94,21,8.45,8.45,0,0,1,46,27.7a9.75,9.75,0,0,1-3,7.54A9.89,9.89,0,0,1,36.09,38Z"/></svg>