<svg id="Layer_1" data-name="Layer 1" xmlns="http://www.w3.org/2000/svg" viewBox="0 0 40 40"><defs><style>.cls-1{fill:#00bdff;}.cls-2{fill:#f5f5f5;}</style></defs><path class="cls-1" d="M27,3.33H13C7,3.33,3.35,7,3.35,13V27C3.35,33,7,36.65,13,36.65H27c6.07,0,9.69-3.62,9.69-9.68V13C36.67,7,33.05,3.33,27,3.33Z"/><path class="cls-2" d="M32.25,13.78a1.34,1.34,0,0,0-.27-.4l-3-3a1.25,1.25,0,0,0-1.76,1.77l.86.87h-.25a8.84,8.84,0,0,0-7.61,4.4,8.81,8.81,0,0,0-7.6-4.4H11.9l.87-.87A1.25,1.25,0,0,0,11,10.38l-3,3a1.27,1.27,0,0,0,0,1.77l3,3a1.24,1.24,0,0,0,1.77,0,1.27,1.27,0,0,0,0-1.77l-.87-.86h.7A6.36,6.36,0,0,1,19,21.87v6.88a1.25,1.25,0,0,0,2.5,0V21.87a6.36,6.36,0,0,1,6.37-6.35h.25l-.87.86a1.27,1.27,0,0,0,0,1.77,1.24,1.24,0,0,0,1.77,0l3-3a1.31,1.31,0,0,0,.26-.4A1.17,1.17,0,0,0,32.25,13.78Z"/></svg>