<svg id="Layer_1" data-name="Layer 1" xmlns="http://www.w3.org/2000/svg" viewBox="0 0 40 40"><defs><style>.cls-1{fill:#f5f5f5;}.cls-2{fill:#00bdff;}</style></defs><path class="cls-1" d="M29.37,17.92a1.29,1.29,0,0,1-1.29-1.29,5.74,5.74,0,0,0-1.65-3,4.61,4.61,0,0,0-3.06-1.72,1.28,1.28,0,0,1-1.29-1.28,1.31,1.31,0,0,1,1.29-1.29,7.1,7.1,0,0,1,4.95,2.52,7.89,7.89,0,0,1,2.35,4.77A1.31,1.31,0,0,1,29.37,17.92Z"/><path class="cls-1" d="M35.38,17.92a1.29,1.29,0,0,1-1.28-1.29A10.73,10.73,0,0,0,23.38,5.92a1.3,1.3,0,0,1,0-2.59,13.32,13.32,0,0,1,13.3,13.3A1.31,1.31,0,0,1,35.38,17.92Z"/><path class="cls-2" d="M19.65,23.68,14.2,29.13c-.6-.53-1.18-1.08-1.75-1.65A46.43,46.43,0,0,1,7.8,22a29.64,29.64,0,0,1-3.27-5.68,14.05,14.05,0,0,1-1.2-5.45,8.65,8.65,0,0,1,.6-3.22A7.74,7.74,0,0,1,5.85,4.9,4.89,4.89,0,0,1,9.32,3.33a3.16,3.16,0,0,1,1.35.3,2.69,2.69,0,0,1,1.11.94L15.65,10a5.7,5.7,0,0,1,.67,1.16,2.63,2.63,0,0,1,.23,1,2.27,2.27,0,0,1-.35,1.18,5.61,5.61,0,0,1-.93,1.19L14,15.88a.92.92,0,0,0-.27.67,1.65,1.65,0,0,0,0,.38c.05.14.1.24.14.34a13.54,13.54,0,0,0,1.55,2.13c.75.87,1.55,1.75,2.41,2.63C18.48,22.62,19.07,23.18,19.65,23.68Z"/><path class="cls-2" d="M36.62,30.55A4.43,4.43,0,0,1,36.37,32a4.34,4.34,0,0,1-.17.4,7,7,0,0,1-1.13,1.7,7.44,7.44,0,0,1-2.74,2l0,0a8.41,8.41,0,0,1-3.2.62,13.84,13.84,0,0,1-5.43-1.22,29.49,29.49,0,0,1-5.73-3.3c-.65-.48-1.3-1-1.92-1.48l5.45-5.45a10.36,10.36,0,0,0,1.23.8l.3.13a1.2,1.2,0,0,0,.42.07.89.89,0,0,0,.68-.29l1.27-1.25a5.42,5.42,0,0,1,1.2-.93,2.25,2.25,0,0,1,1.18-.35,2.68,2.68,0,0,1,1,.22,6.08,6.08,0,0,1,1.17.65l5.51,3.91a2.46,2.46,0,0,1,.92,1.07A3.36,3.36,0,0,1,36.62,30.55Z"/></svg>