<svg id="Layer_1" data-name="Layer 1" xmlns="http://www.w3.org/2000/svg" viewBox="0 0 40 40"><defs><style>.cls-1{fill:#f5f5f5;}.cls-2{fill:#00bdff;}</style></defs><path class="cls-1" d="M10,21.67A8.33,8.33,0,1,0,18.33,30,8.32,8.32,0,0,0,10,21.67ZM6.6,26.6H10a1.14,1.14,0,0,1,0,2.27H6.6a1.14,1.14,0,0,1,0-2.27Zm6.8,6.8H6.58a1.14,1.14,0,0,1-1.13-1.13,1.15,1.15,0,0,1,1.13-1.14H13.4a1.14,1.14,0,0,1,0,2.27Z"/><path class="cls-2" d="M28.33,5H11.67c-5,0-8.34,2.5-8.34,8.33v5.24a1.67,1.67,0,0,0,2.37,1.5,10.81,10.81,0,0,1,15,11.43,1.66,1.66,0,0,0,1.65,1.85h5.95c5,0,8.34-2.5,8.34-8.33V13.35C36.67,7.5,33.33,5,28.33,5Z"/><path class="cls-1" d="M20,19.78a6.22,6.22,0,0,1-3.9-1.31L10.89,14.3a1.23,1.23,0,0,1-.2-1.75,1.25,1.25,0,0,1,1.75-.2l5.21,4.17a4,4,0,0,0,4.69,0l5.21-4.17a1.25,1.25,0,1,1,1.55,2l-5.21,4.17A6.15,6.15,0,0,1,20,19.78Z"/></svg>