<svg id="Layer_1" data-name="Layer 1" xmlns="http://www.w3.org/2000/svg" viewBox="0 0 40 40"><defs><style>.cls-1{fill:#00bdff;}.cls-2{fill:#f5f5f5;}</style></defs><path class="cls-1" d="M9.12,15A5.84,5.84,0,1,0,3.29,9.17,5.83,5.83,0,0,0,9.12,15Z"/><path class="cls-1" d="M28.33,25h5a3.34,3.34,0,0,1,3.34,3.33v5a3.35,3.35,0,0,1-3.34,3.34h-5A3.34,3.34,0,0,1,25,33.33v-5A3.34,3.34,0,0,1,28.33,25Z"/><path class="cls-1" d="M20,32.92H15.53a4.59,4.59,0,0,1-3-8L25.83,13.23a2.08,2.08,0,0,0,.59-2.3,2.06,2.06,0,0,0-2-1.35H20a1.25,1.25,0,0,1,0-2.5h4.47a4.59,4.59,0,0,1,3,8L14.17,26.77a2.08,2.08,0,0,0-.59,2.3,2.06,2.06,0,0,0,1.95,1.35H20a1.25,1.25,0,0,1,0,2.5Z"/><path class="cls-2" d="M30.85,32.5a1.67,1.67,0,1,1,0-3.33h0a1.67,1.67,0,1,1,0,3.33Z"/><path class="cls-2" d="M9.18,10.83a1.67,1.67,0,0,1,0-3.33h0a1.67,1.67,0,1,1,0,3.33Z"/></svg>